<svg viewBox="0 0 1283.666748046875 400" xmlns="http://www.w3.org/2000/svg"><g><g><g><g><g><line x1="30.78125" y1="377" x2="25.78125" y2="377" style="visibility: inherit;" fill="rgb(0, 0, 0)" stroke="rgb(204, 204, 204)" stroke-width="1px"></line><line x1="30.78125" y1="345.5833333333333" x2="25.78125" y2="345.5833333333333" style="visibility: inherit;" fill="rgb(0, 0, 0)" stroke="rgb(204, 204, 204)" stroke-width="1px"></line><line x1="30.78125" y1="314.1666666666667" x2="25.78125" y2="314.1666666666667" style="visibility: inherit;" fill="rgb(0, 0, 0)" stroke="rgb(204, 204, 204)" stroke-width="1px"></line><line x1="30.78125" y1="282.75" x2="25.78125" y2="282.75" style="visibility: inherit;" fill="rgb(0, 0, 0)" stroke="rgb(204, 204, 204)" stroke-width="1px"></line><line x1="30.78125" y1="251.33333333333337" x2="25.78125" y2="251.33333333333337" style="visibility: inherit;" fill="rgb(0, 0, 0)" stroke="rgb(204, 204, 204)" stroke-width="1px"></line><line x1="30.78125" y1="219.91666666666663" x2="25.78125" y2="219.91666666666663" style="visibility: inherit;" fill="rgb(0, 0, 0)" stroke="rgb(204, 204, 204)" stroke-width="1px"></line><line x1="30.78125" y1="188.5" x2="25.78125" y2="188.5" style="visibility: inherit;" fill="rgb(0, 0, 0)" stroke="rgb(204, 204, 204)" stroke-width="1px"></line><line x1="30.78125" y1="157.08333333333331" x2="25.78125" y2="157.08333333333331" style="visibility: inherit;" fill="rgb(0, 0, 0)" stroke="rgb(204, 204, 204)" stroke-width="1px"></line><line x1="30.78125" y1="125.66666666666669" x2="25.78125" y2="125.66666666666669" style="visibility: inherit;" fill="rgb(0, 0, 0)" stroke="rgb(204, 204, 204)" stroke-width="1px"></line><line x1="30.78125" y1="94.25" x2="25.78125" y2="94.25" style="visibility: inherit;" fill="rgb(0, 0, 0)" stroke="rgb(204, 204, 204)" stroke-width="1px"></line><line x1="30.78125" y1="62.83333333333332" x2="25.78125" y2="62.83333333333332" style="visibility: inherit;" fill="rgb(0, 0, 0)" stroke="rgb(204, 204, 204)" stroke-width="1px"></line><line x1="30.78125" y1="31.416666666666682" x2="25.78125" y2="31.416666666666682" style="visibility: inherit;" fill="rgb(0, 0, 0)" stroke="rgb(204, 204, 204)" stroke-width="1px"></line><line x1="30.78125" y1="0" x2="25.78125" y2="0" style="visibility: inherit;" fill="rgb(0, 0, 0)" stroke="rgb(204, 204, 204)" stroke-width="1px"></line></g><g transform="translate(20.78125, 0)"><text x="0" y="377" dx="0em" dy="0.3em" style="text-anchor: end; visibility: hidden; font-family: Roboto, sans-serif; font-size: 12px; font-weight: 200;" fill="rgb(33, 33, 33)" stroke="none" stroke-width="1px">2</text><text x="0" y="345.5833333333333" dx="0em" dy="0.3em" style="text-anchor: end; visibility: inherit; font-family: Roboto, sans-serif; font-size: 12px; font-weight: 200;" fill="rgb(33, 33, 33)" stroke="none" stroke-width="1px">3</text><text x="0" y="314.1666666666667" dx="0em" dy="0.3em" style="text-anchor: end; visibility: inherit; font-family: Roboto, sans-serif; font-size: 12px; font-weight: 200;" fill="rgb(33, 33, 33)" stroke="none" stroke-width="1px">4</text><text x="0" y="282.75" dx="0em" dy="0.3em" style="text-anchor: end; visibility: inherit; font-family: Roboto, sans-serif; font-size: 12px; font-weight: 200;" fill="rgb(33, 33, 33)" stroke="none" stroke-width="1px">5</text><text x="0" y="251.33333333333337" dx="0em" dy="0.3em" style="text-anchor: end; visibility: inherit; font-family: Roboto, sans-serif; font-size: 12px; font-weight: 200;" fill="rgb(33, 33, 33)" stroke="none" stroke-width="1px">6</text><text x="0" y="219.91666666666663" dx="0em" dy="0.3em" style="text-anchor: end; visibility: inherit; font-family: Roboto, sans-serif; font-size: 12px; font-weight: 200;" fill="rgb(33, 33, 33)" stroke="none" stroke-width="1px">7</text><text x="0" y="188.5" dx="0em" dy="0.3em" style="text-anchor: end; visibility: inherit; font-family: Roboto, sans-serif; font-size: 12px; font-weight: 200;" fill="rgb(33, 33, 33)" stroke="none" stroke-width="1px">8</text><text x="0" y="157.08333333333331" dx="0em" dy="0.3em" style="text-anchor: end; visibility: inherit; font-family: Roboto, sans-serif; font-size: 12px; font-weight: 200;" fill="rgb(33, 33, 33)" stroke="none" stroke-width="1px">9</text><text x="0" y="125.66666666666669" dx="0em" dy="0.3em" style="text-anchor: end; visibility: inherit; font-family: Roboto, sans-serif; font-size: 12px; font-weight: 200;" fill="rgb(33, 33, 33)" stroke="none" stroke-width="1px">10</text><text x="0" y="94.25" dx="0em" dy="0.3em" style="text-anchor: end; visibility: inherit; font-family: Roboto, sans-serif; font-size: 12px; font-weight: 200;" fill="rgb(33, 33, 33)" stroke="none" stroke-width="1px">11</text><text x="0" y="62.83333333333332" dx="0em" dy="0.3em" style="text-anchor: end; visibility: inherit; font-family: Roboto, sans-serif; font-size: 12px; font-weight: 200;" fill="rgb(33, 33, 33)" stroke="none" stroke-width="1px">12</text><text x="0" y="31.416666666666682" dx="0em" dy="0.3em" style="text-anchor: end; visibility: inherit; font-family: Roboto, sans-serif; font-size: 12px; font-weight: 200;" fill="rgb(33, 33, 33)" stroke="none" stroke-width="1px">13</text><text x="0" y="0" dx="0em" dy="0.3em" style="text-anchor: end; visibility: hidden; font-family: Roboto, sans-serif; font-size: 12px; font-weight: 200;" fill="rgb(33, 33, 33)" stroke="none" stroke-width="1px">14</text></g><line x1="30.78125" y1="0" x2="30.78125" y2="377" fill="rgb(0, 0, 0)" stroke="rgb(204, 204, 204)" stroke-width="1px"></line></g></g><g transform="translate(30, 0)" clip-path="url(#clip_0)"><clipPath id="clip_0"><rect width="1252" height="377"></rect></clipPath><g><g><g><line x1="0" y1="0" x2="0" y2="377" fill="rgb(0, 0, 0)" stroke="rgb(66, 66, 66)" stroke-width="1px" opacity="0.25"></line><line x1="104.40739583333334" y1="0" x2="104.40739583333334" y2="377" fill="rgb(0, 0, 0)" stroke="rgb(66, 66, 66)" stroke-width="1px" opacity="0.25"></line><line x1="208.81479166666668" y1="0" x2="208.81479166666668" y2="377" fill="rgb(0, 0, 0)" stroke="rgb(66, 66, 66)" stroke-width="1px" opacity="0.25"></line><line x1="313.2221875" y1="0" x2="313.2221875" y2="377" fill="rgb(0, 0, 0)" stroke="rgb(66, 66, 66)" stroke-width="1px" opacity="0.25"></line><line x1="417.62958333333336" y1="0" x2="417.62958333333336" y2="377" fill="rgb(0, 0, 0)" stroke="rgb(66, 66, 66)" stroke-width="1px" opacity="0.25"></line><line x1="522.0369791666667" y1="0" x2="522.0369791666667" y2="377" fill="rgb(0, 0, 0)" stroke="rgb(66, 66, 66)" stroke-width="1px" opacity="0.25"></line><line x1="626.444375" y1="0" x2="626.444375" y2="377" fill="rgb(0, 0, 0)" stroke="rgb(66, 66, 66)" stroke-width="1px" opacity="0.25"></line><line x1="730.8517708333334" y1="0" x2="730.8517708333334" y2="377" fill="rgb(0, 0, 0)" stroke="rgb(66, 66, 66)" stroke-width="1px" opacity="0.25"></line><line x1="835.2591666666667" y1="0" x2="835.2591666666667" y2="377" fill="rgb(0, 0, 0)" stroke="rgb(66, 66, 66)" stroke-width="1px" opacity="0.25"></line><line x1="939.6665625" y1="0" x2="939.6665625" y2="377" fill="rgb(0, 0, 0)" stroke="rgb(66, 66, 66)" stroke-width="1px" opacity="0.25"></line><line x1="1044.0739583333334" y1="0" x2="1044.0739583333334" y2="377" fill="rgb(0, 0, 0)" stroke="rgb(66, 66, 66)" stroke-width="1px" opacity="0.25"></line><line x1="1148.4813541666667" y1="0" x2="1148.4813541666667" y2="377" fill="rgb(0, 0, 0)" stroke="rgb(66, 66, 66)" stroke-width="1px" opacity="0.25"></line><line x1="1252.88875" y1="0" x2="1252.88875" y2="377" fill="rgb(0, 0, 0)" stroke="rgb(66, 66, 66)" stroke-width="1px" opacity="0.25"></line></g><g><line x1="0" y1="377" x2="1252.88875" y2="377" fill="rgb(0, 0, 0)" stroke="rgb(66, 66, 66)" stroke-width="1px" opacity="0.25"></line><line x1="0" y1="345.5833333333333" x2="1252.88875" y2="345.5833333333333" fill="rgb(0, 0, 0)" stroke="rgb(66, 66, 66)" stroke-width="1px" opacity="0.25"></line><line x1="0" y1="314.1666666666667" x2="1252.88875" y2="314.1666666666667" fill="rgb(0, 0, 0)" stroke="rgb(66, 66, 66)" stroke-width="1px" opacity="0.25"></line><line x1="0" y1="282.75" x2="1252.88875" y2="282.75" fill="rgb(0, 0, 0)" stroke="rgb(66, 66, 66)" stroke-width="1px" opacity="0.25"></line><line x1="0" y1="251.33333333333337" x2="1252.88875" y2="251.33333333333337" fill="rgb(0, 0, 0)" stroke="rgb(66, 66, 66)" stroke-width="1px" opacity="0.25"></line><line x1="0" y1="219.91666666666663" x2="1252.88875" y2="219.91666666666663" fill="rgb(0, 0, 0)" stroke="rgb(66, 66, 66)" stroke-width="1px" opacity="0.25"></line><line x1="0" y1="188.5" x2="1252.88875" y2="188.5" fill="rgb(0, 0, 0)" stroke="rgb(66, 66, 66)" stroke-width="1px" opacity="0.25"></line><line x1="0" y1="157.08333333333331" x2="1252.88875" y2="157.08333333333331" fill="rgb(0, 0, 0)" stroke="rgb(66, 66, 66)" stroke-width="1px" opacity="0.25"></line><line x1="0" y1="125.66666666666669" x2="1252.88875" y2="125.66666666666669" fill="rgb(0, 0, 0)" stroke="rgb(66, 66, 66)" stroke-width="1px" opacity="0.25"></line><line x1="0" y1="94.25" x2="1252.88875" y2="94.25" fill="rgb(0, 0, 0)" stroke="rgb(66, 66, 66)" stroke-width="1px" opacity="0.25"></line><line x1="0" y1="62.83333333333332" x2="1252.88875" y2="62.83333333333332" fill="rgb(0, 0, 0)" stroke="rgb(66, 66, 66)" stroke-width="1px" opacity="0.25"></line><line x1="0" y1="31.416666666666682" x2="1252.88875" y2="31.416666666666682" fill="rgb(0, 0, 0)" stroke="rgb(66, 66, 66)" stroke-width="1px" opacity="0.25"></line><line x1="0" y1="0" x2="1252.88875" y2="0" fill="rgb(0, 0, 0)" stroke="rgb(66, 66, 66)" stroke-width="1px" opacity="0.25"></line></g></g></g><g><g><line x1="0" y1="439.83333333333337" x2="1252.88875" y2="439.83333333333337" fill="rgb(0, 0, 0)" stroke="rgb(153, 153, 153)" stroke-width="1.5px"></line></g></g><g><g><line x1="104.40739583333334" y1="0" x2="104.40739583333334" y2="377" fill="rgb(0, 0, 0)" stroke="rgb(153, 153, 153)" stroke-width="1.5px"></line></g></g><g><g><g><g><g><path stroke="rgb(255, 112, 67)" stroke-width="2px" d="M110.53997304239584,394.3928644359112L111.72802479958334,368.802971093605L111.86918359875,361.79320782362197L112.41293731625001,371.25616626762877L113.15976341864584,358.98168385489356L114.34875484239583,371.9680051818194L117.51918982427084,381.73400572218435L142.72386603020834,393.83447638730587L143.16383879625,376.7916681509936L143.2324344553125,379.32479389910003L154.3775063309375,390.1986886536944L154.99653778083336,374.60418374931965L155.25870475177084,375.28851744920854L155.38033936791666,367.06543071066835L156.25882319645834,376.9685124910871L156.38797514510418,371.10069928646686L156.78660258239586,372.376546729171L157.34100585427083,371.669057386231L157.7690761771875,369.5148787997348L159.618653194375,358.84231954215585L167.12209951072919,369.5696483696292L168.27799378999998,358.1580823010521L168.91279075666668,370.2768351006652L168.9748087497917,355.56458455926463L169.4284588846875,369.13966089849873L169.81831610072916,354.5954877835334L171.04729555708334,349.8338723759923L171.25099438635417,331.20429988191546L171.856870504375,333.1737585752372L175.25543564614583,348.86758446827645L175.45725514229167,320.33322103898655L175.86841146708335,335.1712330346167L176.25398797989587,331.4698320963895L177.28135675489585,314.5328196012325L177.6444856776042,317.2944350634027L177.997278268125,315.47836005652L181.56947290916668,318.3673377591216L181.91286883406252,306.44316794223647L181.99597712114587,313.87867408045366L183.307647235,279.5539926511937L184.18895006322919,303.6261613581316L187.64953319812503,284.00549017272806L188.61968672020834,301.6319136552955L189.9444077585417,305.53056657709345L192.2867876840625,293.6473241273423L192.5031198082292,297.9462961290594L193.43015307583332,316.4511449695219L193.659640531875,335.7984275079125L196.89940202458337,314.4246361289235L197.35942101062503,229.80948367320372L198.76965170614585,251.5537558472328L199.51512051239587,287.9867008254631L200.13571807322919,238.99633205686234L201.93883379927084,230.31413170151444L202.55055673145836,254.24683665704254L203.0251927529167,282.59685280008034L203.3640991597917,277.10837999631707L205.21858332458334,269.4073765733823L206.94569046645833,276.20231128885257L207.94267668927085,286.6005903471743L208.77031411604167,271.5153622541369L208.9364262828125,259.36457042178756L209.86815788322917,277.7258664545292L211.67534549770835,280.1943227634951L213.9467283940625,253.49694373922296L214.36602849572918,280.1214364531641L214.714435975625,308.9506246663931L214.998841721875,301.2513377597612L215.32093853802087,316.2134946861276L215.77166526583335,300.2001340634669L216.49677462989584,307.3652744917301L216.59919828520836,315.27542261053486L216.76113415614586,279.42558713616546L217.24871669468752,283.7081910522478L219.10967411802085,277.3542630842346L220.259721583125,283.3606512966366L221.2811391365625,280.0063332491683L222.23239492000002,256.2935269856592L222.74952475156252,241.00693411335192L223.44487800781252,250.31023483299123L223.59125717677085,273.95227444662396L224.0506497184375,270.57852326528473L226.07166367958337,269.11571076728654L227.0289750919792,295.59909073840225L227.53597740614586,267.2099178651809L227.69874853625004,271.55513318497964L228.66858883614583,262.44952181251267L229.46647015510416,266.25988054635974L230.18761203812502,276.9039473237366L230.7417020878125,273.70149925361704L231.51807548322918,273.0829920312402L231.82628611572918,267.4490471407158L233.77766034385417,242.87520569112198L233.92664969770834,260.61599829323865L233.948784065625,246.81026342627075L234.28497588020835,268.7134472873807L234.47896482166666,293.22902050497134L234.8604694460417,246.87157743105487L237.66526972770836,246.1141440923762L238.11818901083333,185.91137264901906L238.6254001397917,173.38217105111187L239.777848975,199.47089222455446L240.00253369083333,224.2338664733435L240.37004772416668,231.5001787624597L240.7923756403125,204.50312013716533L240.99858024708334,200.67189573024334L242.0321090584375,232.11158634091188L242.29344077020835,252.78595414677127L242.34679294947918,295.0085321997734L242.5952825515625,295.5841124495943L243.21723740854168,278.6067122722315L243.3670620215625,296.803678026079L243.63841684333337,315.9241441191905L244.55302563083333,303.14746318469486L245.42451416385418,226.46131717091822L245.91408044291666,225.0035213168026L246.52319319020836,244.74307712329795L247.87067504083336,208.55517664202077L248.33173810083338,236.7125955977918L250.11804423614583,269.541656789713L250.16440111989584,291.0059454386629L250.2830079215625,188.0445636557657L252.58936729552084,233.82261094533118L253.01253047083335,270.45430360485733L253.49656315791668,175.48406325727478L253.61778014447918,229.04464092423387L253.9439488490625,170.2084386581373L255.29059544052083,234.17465744619722L255.34332117541666,257.7075586927244L255.89668037333334,200.62162530098217L256.0054728797917,247.36017275456896L256.2642988140625,276.7890128728011L256.9999533251042,277.96773034152943L257.2520971860417,205.0756570050173L257.73049187375,161.147738080167L258.5431990429167,203.26328239099777L258.8514096754167,231.01903469516787L261.65829810500003,156.61944926075512L262.6263634791667,195.89356385246344L266.1954258983334,223.73267264311767L266.48317268125,246.20168061541665L267.291912369375,150.1007240344315L269.29162722177085,206.80760760282843L270.0660168766667,221.21227844859382L272.0236555485417,214.97902970495954L276.86826312260416,248.66851223101094L277.91713982114584,151.4586888904763L278.2804775586458,229.6056130938963L279.75001165500004,288.1347599315585L282.4841281296875,292.9245356413488L282.93307993177086,284.1119485195139L284.84979090447916,279.474951253076L285.73359951020836,281.14290004516016L285.9057673059375,294.813067183163L286.37027581,284.85950786983943L286.5396246060417,314.21954225172186L288.2567086379167,303.67621637187153L290.03654151468754,280.0779272921984L293.2519760841667,313.2499255781236L293.5760566408333,285.6045680947023L294.519690684375,301.7797575934878L295.6453068188542,294.81071550910576L295.713693663125,172.5128152167692L297.80340769072916,211.12139743542048L298.40917940135415,243.76553697174018L298.57142849447916,248.97183442186451L298.61956030395834,261.9624157591927L298.7452668085417,255.1174312975566L298.7878650260417,134.14668215194703L300.24654075322917,116.14441111611943L302.08922688229165,215.62917907393543L304.25045997604167,259.0304848791554L305.9672307857292,265.17007127849627L307.44532628854165,255.7769100633166L307.72461607239586,303.3134915650031L309.0011008938542,302.6680321109379L310.0284696688542,285.333129180198L310.84295176375,302.2919455842525L311.71036840833335,284.79065483071514L313.36292866958337,278.9571148947365L313.5331127247917,193.77213556739608L314.9113947571875,114.94998308324564L317.40683592500005,211.77621865453574L318.52441269,276.0220286062295L319.5426980215625,286.23208128676424L319.67184997020837,318.69369903762504L319.8052826220834,317.5843632671795L320.1426229180209,327.3263445886112L321.6915066352084,313.48386725935165L322.4940862869792,305.8721400170693L325.78260603354164,295.39575287913294L326.0363160054167,311.19236690927556L326.6889666367709,303.19394861337946L328.59962198052085,336.3848567963287L329.103178850625,207.46320103967054L329.8816403939583,142.8801314951809L330.1988300625,162.8812265468736L331.23747483625,232.50371199089878L331.55111465333334,262.970863325826L331.65322508645835,284.47674829767044L332.24344009510423,296.9172608395769L334.1989906190625,295.025781890175L334.92806746416665,305.7908001306183L338.0346051197917,316.00792484060094L338.7543897066667,314.9048454557369L339.8611081025,170.20888135003105L341.64845831177087,235.20951261421277L343.91712661583335,237.95483944197636L344.5578748040626,264.91024080940167L344.7455993017708,261.6732119085078L348.2524349130208,300.96634930143864L348.5448800287501,313.63396320603357L349.2438875438542,209.51760660327716L353.7621175985417,270.06244365404393L354.4227031919792,261.0494562150856L354.5025748497917,290.27013341755594L354.6335017241667,286.2536916266139L354.94630628208336,294.6452112553669L354.9851458333333,277.1071718111527L356.5839362857292,273.37314005543146L356.93297021,234.7873658091785L357.1182933376042,288.65292588180074L357.63834657625006,292.4900288222577L358.92370602635424,317.4091350657749L359.1104908575,196.7730491890316L359.18326281239587,247.3032305916431L360.14161829875,281.95543460927104L361.53503940354165,303.53946925529857L362.33918516625,288.685653471921L362.46061096760417,308.42909382023856L365.4568944132292,294.28343436462745L366.9112894371875,158.60252782509562L367.37402301552083,203.37869887037579L367.7897732657292,130.30821421434578L369.3094229120834,217.63145652626022L369.47240285697916,241.5626436345621L373.06057182958335,271.39267762538856L374.0163171310417,291.3963699501975L375.2824656203125,321.095609833532L375.47906474666667,286.39698768242204L378.0449809066667,314.04746411989527L378.2115107030209,327.75989228139565L379.1484626732292,327.99879423966155L380.9385274747917,321.5999666861106L382.64141210083335,316.42998237677864L383.06770749802087,179.8492240782685L383.33749620885413,133.0588311439419L383.835623894375,210.7555748434264L384.5043532646875,228.52656757502152L386.18447707843757,277.06375351549224L386.43735179114583,308.93665330609304L387.43204105125,278.693763007724L388.42756557052087,135.50834364295227L388.8812157054167,223.9612069364402L389.4326955702084,256.804397978545L389.97958150958334,292.3193757205173L390.6623014709375,171.2883458734929L390.7199343534375,221.6344814817933L391.4333500891667,263.27938857798745L391.57283837,298.78962004457895L393.77458153333333,307.88747696245696L394.4498885695833,287.3216538677513L395.6168500328125,301.62182306348683L396.79101560635416,284.81927454729515L397.9778144747917,307.1484460846164L400.66494762135414,330.2377930491514L401.148040641875,328.69016490038314L401.3348254730208,316.06606319143026L404.67346076958336,321.58948511239083L405.7403999476042,325.1418232263497L405.8560833421875,186.38429373948009L405.9120457063542,141.1509368724519L409.0018781786459,73.5332375550406L410.1131904998959,169.2826426933688L410.58772211395836,248.44054880800738L412.43312283531253,115.43299758670464L413.48126868208334,198.91681776188454L414.54309189770834,216.1412795806486L414.94808818614587,202.69644720700737L416.75193476395833,35.56771611778354L419.5043225329167,118.49784941439879L421.26014170864585,185.65054880955844L421.96614451927087,66.51311949518737L423.00906999625005,163.24550517972756L423.8745029003125,253.3905266637193L425.20621923416667,20.242655307923982L427.54995645583335,128.84309058440243L428.834376239375,224.91275017888856L429.1800691269792,249.15770310619374L431.467948391875,286.5248544839555L432.131979429375,294.11465316380264L433.3279661486458,152.72387571353838L433.4468861725,229.6315340075043L435.45432717218756,249.4990062638013L436.99370981635417,279.3586281174753L437.7031580710417,290.0361213863492L437.8231221688542,137.2675380814433L438.2278052351042,63.97565355946778L440.5041996864584,176.71207279592844L442.2573042698958,243.9467297313418L442.3720479979167,284.64189977950684L442.61208060093753,292.2105972816954L443.5500766451042,306.2226265619443L446.22060901572917,323.50624731879907L446.40614095812504,316.44478021284823L449.7259829234375,330.9419947836054L449.92519223468753,319.35702140171844L450.48972302395833,169.92562237802858L451.56804260812504,195.2358687366469L451.6117893069792,224.60106683842872L452.5924879760417,252.41402779264772L452.8045393969792,245.85677995429546L454.86752513125003,275.98739837495157L455.00461204197916,273.7511667662124L455.39290314708336,262.5666239094691L457.5573728701042,175.12576463015614L458.8565140964584,235.12164190327172L460.248055868125,104.1873324091139L460.5774612019792,205.82229214757098L460.95009119770833,250.38884344408558L462.6300061966667,275.1493710599918L463.8253664715626,297.85068614816146L464.1737739514583,298.4715326440462L465.1033129965625,275.8960221814391L465.4101663329167,128.22394588434358L468.0751651115625,158.27704723781542L469.4923911026042,-34.59214339192997L469.617784385,117.88853464800344L470.54011931979164,203.63140690889895L470.6688536388542,252.7906630549844L471.09013748104167,9.300776782473894L471.2027930611459,8.25621104807115L472.38364070802083,78.32998678229524L473.7087793759375,167.45478370870515L474.25858872239587,228.31398191701592L475.4129168907292,265.7978130737019L476.07506859510414,194.0821668163383L476.1704969548959,142.41155385109448L476.5320597666667,183.69132063666584L477.3390245290625,243.63391619848971L478.4247570383333,283.8897114073898L480.71942278395835,313.3354480589826L482.1315328126042,288.31173827203503L482.3858692288542,292.0453804291431L483.69847900927084,145.86444247308233L484.38297389635414,189.6917071136407L485.06538063552085,235.28998368934225L485.5194484,247.1350709236985L485.8926004327083,269.45234452311155L487.3880275632292,305.97474915161104L491.1485731463542,310.26996557538337L493.433320189375,7.9894846476591885L493.4861503316667,56.31714876080415L493.7758808551042,139.06955936502337L495.13338581572924,195.75465310584062L495.2109605108334,215.4953191417687L495.283836873125,245.94192709157264L495.7549230431251,270.374962077316L498.50167281270836,261.2706976646839L498.97797935250003,263.62022807884165L499.15766448072924,271.67785436325045L500.3393473867709,269.47575666753113L503.68758816375004,286.9426819617411L504.22925373333334,304.30267235447127L504.3480693497917,286.2989926148007L504.59937795156253,285.4074689115216L504.9889219454167,277.4537132639764L505.1918899229167,291.7796110824194L505.65243094593757,302.3761939594416L506.1672638147917,288.69171817238737L506.3766006434375,257.48625678500895L507.12541048635416,286.79562361249145L508.98730757625,292.4599337689607L509.284868654375,300.91368688618314L510.05957153145835,309.54227236991227L510.80796374479166,301.41023587436536L515.0794791231251,289.7965178762936L515.9882410964583,257.5819218640564L516.4565082667708,251.36163251906862L517.315885541875,285.5864187318696L517.3949219405208,280.85352690847395L518.9855686160416,163.98501647213115L519.8883793678125,217.0827652416568L521.5283063341667,232.74274704070538L523.2286851827084,275.7041050903697L523.4341589377084,288.3810924875358L525.1923794835417,320.7419857295922L526.3478561332292,309.53886069332987L526.6378998788542,280.4700023341701L528.2571541808334,311.3040142541245L531.5871236635417,304.19453013450595L532.5288783739584,139.6403457433623L533.1040587176042,206.00498672191154L533.1646150071875,249.5209378631742L534.5281755967709,290.3838714022536L535.6912739863542,315.1950572049081L538.2402761482292,319.3680506536639L539.6715971377083,312.0813492132788L541.6059529603126,148.30100660285746L544.91013381625,6.318999271162716L545.5951507403125,105.77881915205822L546.7435276870833,198.60569773614867L547.3748792096875,85.77542037864801L547.43345175875,146.0937049891568L548.6276635522918,175.02104568318626L550.1656889003125,248.07084845604163L551.3627196935417,271.8604917790592L553.3515761767709,149.24232239719828L553.8634856385418,206.67716743467216L554.0728224671875,220.80337377737735L554.54860697,230.28427415897912L555.1736940488543,270.5565159269798L555.3656992497918,137.39881195715833L555.6552209584376,194.0139949684845L556.2759229266667,192.4057287910882L557.8319063467709,165.0078717394255L558.4025971723959,198.4788536423593L559.5542107484375,223.90116994743443L560.763561614375,225.66360591946977L564.9423632252084,229.9902493264215L567.2097786405209,-6.000999253634493L568.2891422986459,18.55846671165399L568.98564403625,150.49660191477162L569.2962560388542,179.66188353821127L570.0059131083334,211.98967507595512L570.4019303607291,229.41556968956016L570.8166365369792,104.34561860562653L571.9788996673959,132.95401979288235L572.2914954105208,184.575177976295L572.6001236726041,99.02771024036684L573.7746024683333,170.39124569174615L574.3420566646876,59.26877890155892L574.5570314927083,156.83398221011663L575.8072056504167,202.9096960429889L576.3498108865625,97.34140599198392L576.9675894477084,0.2002864942585676L579.2479513801042,110.53162746423297L579.5409185328125,163.60420873638276L583.6846392586458,196.02159368322066L583.7469704739584,202.13842742041209L585.7630772875,235.54441512661452L588.5061727982292,252.77593300960828L589.0305067401042,75.88756844732586L589.5506643861459,147.97537792523758L589.6101766017708,219.10690673669208L591.7920823598959,231.1170715042752L592.4732362103125,255.02551071338664L593.3531817423959,275.19497884408327L594.4475800655208,291.41293348329674L598.1927777614584,134.79021576319587L599.7230769621875,152.88755938574346L601.5614823880209,227.26709275939862L601.8396236905209,270.1060351937938L602.8029907318751,258.63360000510585L603.9434327165626,164.7215415528987L604.3388235245834,216.23956959396048L607.0217803753126,230.48451492557592L608.0809934060417,242.79103403113086L608.8075644736459,207.19034107221245L609.3977794822918,217.03399279729373L609.8813945397917,219.54183298954874L611.0725785188542,262.93588939473733L611.2182268360417,136.19828913509266L611.4138862958334,141.86844832439868L611.5392795782292,5.713809307851304L611.9386378672917,-199.1987639249735L613.8740377638542,-37.17664282568066L614.5020482497916,87.90363878579281L619.0863681860417,164.7877743397435L620.4439775540625,179.3581464382577L620.49691210375,198.45787222142428L620.6183379051042,245.68878926608207L621.4646642557292,260.0503300216193L621.6994764889583,253.17812976358698L622.3113038285418,274.43532939623816L622.3855374869792,264.20085352979714L622.7266364491667,265.5335569202261L623.0879904461459,257.7387592366948L623.9903835683334,111.04922694195989L626.0173487510417,189.70412169831806L626.7393258932293,224.85723681611503L627.1200996658333,242.36927964307478L627.3856076734376,224.18440254142453L628.2349618385417,-105.71506699158407L628.8042953680209,23.02779428024896L630.4312758172917,73.79992629603433L630.9022575798958,158.8576814741843L630.9767000531251,220.9401626990807L631.5027045133334,245.2003271504187L633.8578221411458,264.2069984231756L634.354488123125,285.3941132438798L634.4266336336459,283.8808469422233L634.6772113836458,145.42863303309113L636.7540833015626,165.4368844065195L639.6057625039583,196.44914387264606L639.8657369195834,242.79696656027684L641.4336227828126,261.5227399553413L642.6593656098959,273.289794787897L642.8790387707292,277.08544791448116L644.2439566564583,278.57144285465074L644.9451567268751,267.9745114081589L646.432335673125,217.64385919373163L646.9038394727085,60.21678846240595L647.9110576203125,145.15922359522517L648.0310217181251,180.877575102824L648.2606135815626,225.88362180195926L649.6344060959376,250.71199584207548L649.7994741887501,267.949001297563L650.0846107867708,280.2630694778023L650.8746615510416,227.29739408917771L651.6860114240625,263.1885779136075L652.75503875,-58.76156689522744L653.9297263605208,77.88767818332863L654.3095604665626,28.89859351150877L654.9702504673959,125.03753495593479L656.1787660741667,179.08914470898875L656.2446471409376,118.540690041946L658.0734470863541,202.66356414399542L658.5244870363542,252.38627047047217L659.1578222994792,249.60227810564757L659.8555769258335,234.86552798284956L661.1999265545834,235.493347904288L662.3541503155209,247.07237224253208L664.3909297934375,210.4294734426669L664.8958439596876,236.56754696538042L668.2095258886459,279.70070118210714L668.3372161337501,250.54065960150163L668.9615723608333,239.58732470771386L669.4166841992709,116.3018809849066L671.2354610346875,124.00476795200763L672.7252501658334,-1.8586095784251693L673.3499196151041,126.63369520023596L674.4088194236458,178.8115737250356L674.5921588107292,87.05880979364562L675.091539385,82.05700638094812L677.1588058225001,166.59107683221063L678.229399259375,209.94319237541893L678.6356484365625,68.18316504123851L681.5337889301043,-141.42917739890194L681.745735943646,25.587385903544217L683.1456303069792,95.05277235353803L683.5914498871875,150.7288480542788L683.660671990625,173.71026121433707L685.198697338646,211.12087249868785L685.7079966155209,250.69970957505907L689.957690848125,136.60572767298342L690.5999007398958,179.08886144980346L691.0731794652085,205.82800075863537L691.8049709026042,247.9513600515608L691.9963496591668,233.84780228022444L693.3838195423959,61.310548789602734L694.0539062088542,150.79839821297065L694.83205453,213.13626399619264L695.6599007715624,260.0357287187351L695.7542850573959,286.86552787575954L695.9662320709376,258.668288092338L697.5380854152083,263.5377783897656L697.9607265535417,260.68555869200657L699.5018841234375,249.68967930598356L700.1189318328126,277.65078761651097L700.6846111034375,283.4479691335001L704.87896941625,303.5559503325883L705.541121120625,111.77056271766007L706.1949202333334,171.0488629118664L708.58000278375,179.07410911178965L710.4861686094793,220.32933756981117L710.7357022855209,235.8432165301273L713.271444708125,235.71649489699377L714.9493759665626,268.98110939203843L719.4234416928126,274.47605194134997L722.2127896798959,-69.78947933425408L725.0778330289584,-130.8659695971764L725.1367188002084,18.099401780639734L725.2695250077084,92.74277411421613L726.2280893088542,185.22464056722606L726.9695906340626,226.41007427322236L728.5583579764583,216.77998066711845L728.9459182297917,216.80863997599533L729.9839365591668,190.8960118766291L730.3936311804167,248.36625953171625L731.0764555491668,281.3013760228195L732.7240042554166,280.72753251269893L733.89837864375,285.25099768246474L735.3156046347917,285.1240474740978L737.433404251875,128.14652276597312L737.9309054930209,198.45038395262893L738.7349468483334,247.65808472516417L739.9766640069791,273.42484908987456L740.4640377307292,251.84556565496948L740.7859257320833,282.15708118566045L743.4932095060417,137.8751372052521L745.9911564513542,188.05474728464822L747.8693410950001,193.01255748740678L748.0023561172917,215.20106927994001L748.0722046651042,231.53028733199704L748.2192102784375,258.0911596536589L749.3405457096876,111.62792043208785L749.7203798157292,23.53629313500546L750.0301565591668,52.44374783789213L751.9254640157292,155.60879165304758L752.8380890627084,216.9125534596427L753.5280131343751,229.60847372426892L754.1447476215626,262.8304582115867L754.4391764778126,258.3683454956725L754.4857421763542,256.8364252388148L756.2826978660418,265.8227859103482L756.9116480185418,286.9612980542859L758.5309023205208,291.84033990651056L758.6067020898959,147.16908456931324L759.4579355881251,179.40275516142336L761.5299003584375,239.48845450498595L762.1145817751042,265.3319202606952L763.1969732477083,296.0526102986977L763.5198009156251,309.3815926913646L764.0368263397918,247.5084180476801L764.5613690964583,79.59739396825647L765.0913410377084,159.62574591947725L766.1995211370834,224.11034491089856L768.2261730976043,52.049277955857214L768.8860278392709,-72.50825601345265L771.2970034238542,78.88021116141896L771.9418235005209,138.71665780952227L772.0000828273958,182.59304687903713L772.4035130048959,203.59711793378824L773.4061372270833,219.41991151560845L773.8778498414583,68.43858485136133L775.7550948185417,160.95815678862948L775.8206626631251,156.54975464599266L776.4168288933333,199.29587874406738L776.7489488194792,230.28028423941626L777.5226076226043,241.194083639124L778.1238898152084,268.33431140669524L779.0519671567708,275.2267829741339L781.6241477605208,262.8677369216264L781.8208512942709,100.44680188452281L782.4769473696875,187.27445391628194L784.079705303125,217.49066660292772L784.3317447566667,261.57331803731813L785.0111236813542,264.8201298750998L785.9402450968751,-50.925915620472274L786.3455546075,42.748456187002084L786.4845208513542,111.55135507600639L788.8760766603126,184.5709998004663L789.2773142825001,231.46149269300872L789.6456635750001,235.3860830916455L789.7980983729167,253.81133048853223L790.5493095859376,261.3492297875143L790.8958377327083,269.3258923697823L791.792488448125,278.74387799948573L792.4196636748959,272.21014670083997L793.4609186335417,221.83886267870707L795.13707496625,228.13896197952852L796.40750415875,235.7206810328048L797.0912681940626,101.85297422484646L798.3265120941667,88.67682232584211L800.2185829214584,-14.292257320131943L801.7859467477084,-82.44881579751535L801.902778623646,39.1940485786909L801.9649010241667,129.31281875877664L805.3596030922918,61.088524257992184L805.8779858126043,143.08700205237935L806.0744805315626,217.91647350798806L806.6692894656251,177.26447719739335L809.2129668503126,222.50055200103793L811.3010103595834,241.9972617362571L812.6332487304168,271.45764560707204L813.889165294896,276.121493454026L815.9139379222917,288.53521800552613L816.4486081963543,261.9308895777552L816.5421572230209,254.60958364670805L818.8798388157293,237.27818225462437L819.9958494697917,105.95133693201856L820.9895990633335,17.139777035614955L821.4062889801043,75.25978975957702L823.4432772728126,158.9127926357552L823.6438438802084,198.248710111457L823.6948990967709,204.84310029884847L824.1262060489585,261.157149300619L824.2535830718751,243.59674998063488L825.3237588791667,250.50179148478495L825.8394270071875,281.3315336113961L826.428075904896,276.1037038289979L827.4643193085417,263.34209838649474L828.6234502170834,256.54158995434153L831.4017310202084,262.3130352212062L832.23511085375,267.5566743202848L832.3590424326043,49.36188036528287L833.0545000962501,-7.22657873832946L833.7606073142708,74.34412849781658L834.2563336296876,27.712168913112592L834.7161438009375,114.132712972776L834.8283817514583,156.60668910301678L835.9521185528125,184.83069718335244L837.2976166629168,28.319986099725003L839.7792760544792,-11.43921440756819L841.6575651055209,-81.20620747754866L842.0881412059375,63.756916179160925L842.7173001732292,150.11692910228217L844.8174549404166,209.697159795964L846.3138217375001,249.72613423804697L846.3791807672917,256.9877396369393L847.6165128153126,188.35752574271453L849.4582592778125,-129.3745883802584L849.8134532384375,-87.1688071231054L851.7361154327084,56.101981345414714L852.2210877863542,109.35739788826281L852.6021747811459,89.78693816711096L852.7518949867708,153.2301456470266L852.8323930889584,208.48858282202337L854.3073563698958,-73.42057724058319L854.6214138165626,62.37988129898098L855.5625420826043,152.00450396325704L856.1901349389584,-2.406270298640883L856.5203755319792,63.87898101412398L857.0569251391667,118.70581283968572L858.4045113971875,189.52491964579755L859.2504201182293,233.0487950981525L861.5964543026041,266.01333587611924L862.2050450129167,280.88365259912734L865.7045721064584,260.7306610533424L866.0498473644792,256.919968878557L867.0271005894792,241.7968699665842L867.839807758646,73.15396464657648L868.1195151720833,143.77724241887654L869.2175677540625,160.8229117850967L870.0755877330209,196.6344919161304L871.4534521358333,191.4414580637001L872.1236432096875,240.31502939703762L872.6999720346876,256.460498691257L875.2001115353125,291.06209972738594L876.6110730826042,240.8408403430742L876.8251082440624,271.3770370106515L877.8826507564585,254.4912239166469L878.9913528928126,249.1089505981825L883.9042429037501,223.5694616217269L884.5306872787501,265.813402707111L884.5722414222917,118.17116527640688L886.5699725341667,192.32116961211284L887.8324667645834,219.45280593075552L888.0645644055209,236.06027108096004L889.4469183263542,273.1100301603253L893.9352878658334,263.12032886305104L894.3388224507293,145.94063762799092L894.4846795827084,34.42335169300551L895.882590205521,-45.665591505457265L897.3524375240626,80.27477329534935L899.3013059746875,145.16418184576023L902.3648277832292,171.70180770797086L904.2485460188542,216.6469108723157L908.2284515406251,229.41975609039585L909.2062268026042,-80.19957081729979L911.3072168289584,33.155752069226104L911.8284185489583,116.7743262250053L913.2082666922918,181.3025868136978L914.9174157620834,222.29068518872833L915.2000465826043,101.89135027644501L915.9743318301042,200.2278341495045L916.7902756285417,221.04084646163673L917.2346335052083,242.04230997239526L919.8814653969793,240.70717760687054L919.9525668335417,268.0300154969989L920.2590025403125,254.45980154787893L921.2350028765626,202.7541511415366L924.9966969410418,197.65728884293176L926.1999921780208,189.27325644505146L928.0602187495833,211.26715779947511L928.1171207803126,230.9237352568742L928.6920923091667,219.73452479593973L929.4236749317708,74.42984375329623L930.2646765052084,162.76503937028932L931.2707461714584,176.84202321717984L931.5501403627084,-126.05750986526502L932.6512207591668,31.67818152552785L933.8511749594793,143.24317670452163L935.0116631641667,52.53214106909963L935.9341025063543,142.25712028713545L936.5929131740626,24.670599903095887L936.7895123004167,133.76981289710355L937.5988784329168,182.41215880429203L937.7006756438542,112.92911821831531L937.9516710234375,170.1715090169267L939.8231735937501,210.43697248461385L941.5300257008333,242.12741079268372L943.8400393336459,249.76343878708795L944.882442773646,251.75810381930575L947.2874671366667,141.20243484076758L947.5732301790626,176.0552407957925L950.6978303141667,82.95716244724272L950.9397422503126,175.739615059377L952.322096171146,-58.01397988608608L955.6085277697917,78.19386642727575L957.4538240837501,170.08380928965406L957.6858173172917,203.398972872885L960.5480416666668,237.40129168271534L961.619052733125,266.01564181311636L963.9552726222918,280.92293716548113L964.9489178084375,262.79957970626094L965.4736693798959,242.5175892232673L965.9322266623959,226.37468587470946L968.2006861516668,235.86450300482645L969.3269287305209,272.7667901865705L969.5457666321876,140.69670359802626L969.7245120938542,178.40193014450304L970.668668174375,205.63109571004372L972.3959841310418,249.0205461239683L973.6302883645833,250.9738897833745L974.0898897210418,254.3640245330445L974.578933963125,249.63666211756737L976.0838621666668,266.7897495936911L977.493257603021,253.10163375406822L978.3875069483335,276.5176825324855L980.9399545542709,286.723826396475L982.4712978289583,295.23734330416306L982.6601708080208,277.6756793932949L983.6241642937501,274.36455992123496L983.9263192972917,270.67578859683476L984.3965702081251,269.07208180957997L987.2517992619792,294.2814059368807L987.3035853303126,308.1060012566271L988.66077706875,304.29391335570153L988.8542439732292,297.4735806730787L989.4372548715626,291.9337304878672L989.5110709004167,104.96149046709772L989.5850957440626,56.232085511032594L990.0148365853125,174.76990645226468L991.3825734707292,208.5487725800075L991.5337553798959,241.62220338577816L992.7177352486459,248.44276975549138L996.0575190265627,229.04322828624765L996.9679515182293,215.48812747264378L997.4128314318751,224.543001589762L999.7252464347918,230.08025119558187L1002.5480047885417,183.71830344511196L1004.4729639455209,192.48679134237642L1006.3051049276042,245.4742127238981L1006.6474567785417,221.0780164229436L1007.0857590262501,233.7025059120395L1008.7764279869792,259.66787538865435L1010.4727349470834,259.8558678106818L1011.3188524829168,282.32231597958133L1011.3710561808333,110.39811866794898L1011.8146832057291,142.32697966087784L1012.4458259135417,198.5985714419023L1013.484366279896,214.51479754984388L1014.3296485565626,141.8903743871451L1014.724099698021,0.7112089742263579L1016.0201087025001,128.1442588298941L1016.3181918176042,188.30372674441875L1017.9359844160417,32.50159595316576L1018.08612225125,145.25538079285184L1018.6427180784375,181.89141737824815L1022.0756332534374,199.27425432645956L1023.6084382316667,211.624557672602L1025.27519789875,210.6604633760425L1027.6810575209377,225.55755306275526L1027.7512192909376,214.12973674729565L1029.406702959271,204.56662763314506L1029.5624787938543,231.48063603931902L1029.644125377396,239.70806078847784L1031.7336305902083,224.98059981308302L1033.491120284271,233.93047424102977L1033.8020455090625,104.7892258084525L1034.8278481731252,154.72363790969308L1035.215721648646,121.56311992665285L1037.1953902810417,205.25447503642332L1037.2631506809375,266.5883701081043L1037.8406279872916,295.5313855629145L1038.1163679196875,259.12742674078424L1038.5493453902084,260.8246550464186L1039.6660868960416,257.91168415766276L1042.5697609815625,268.96414633723884L1043.3122019733335,279.50806790272077L1044.0505710766668,254.3847847959181L1044.6866209320833,241.52891352459474L1044.7375717412501,249.63841582944792L1045.014460155,282.69962996807175L1045.2777756072917,287.5386584593842L1045.5514273917709,279.9385358171059L1046.6598163059375,14.072412948393355L1047.0134441556252,132.12837429478776L1047.3054716417707,20.626715713550716L1047.420006555,95.11595886576782L1049.0384255978126,177.3817618943966L1050.3008154208333,191.17573238955237L1050.7818202934375,221.05626231161537L1050.8348592505208,236.29727023677694L1051.9803127902085,204.59683468641836L1052.1581185853126,231.95170873027243L1054.1895732860419,261.0748442587527L1054.2457444650001,249.10516421262056L1054.3162194571876,267.1772656456448L1055.9234669086459,83.39101432258786L1056.8664745078127,184.92533102727873L1060.2329865790625,225.53457218267687L1060.9608105354166,218.78371604596472L1065.1105868902084,237.26391418962618L1068.1598048855208,246.97977104299628L1068.4124707834376,280.16861487138294L1069.7485722279168,277.6394452773016L1071.4134525618751,252.42262838616858L1071.5479292877085,285.8954557001683L1072.72961219375,200.0629054200705L1075.312442351875,215.42696054927848L1076.037864938125,262.0800656248272L1077.2940947247916,281.6629422368094L1077.5823635446877,298.8202995853514L1077.690947236354,292.24519576213106L1078.3428670159376,286.28229599146846L1079.5651643989584,314.4710295892684L1080.6358622432292,306.20145538033614L1081.1061131540625,190.70798476486343L1082.2136668090627,212.94938894877203L1082.5814940645835,219.48254913947596L1083.0857817864583,69.71788222111235L1086.170707111146,135.61100256353797L1086.50888266625,198.88186178948592L1087.589499213125,255.93156870015127L1088.029367571771,273.4222780375143L1088.7173079029167,290.7734866564548L1089.2950984314584,264.52994098018064L1090.0273074984375,270.8898304169404L1090.5396345897918,259.41526459843084L1091.2808226928125,267.75655992343127L1091.3628869059376,88.94549975105583L1091.4257401582292,170.6463514564939L1092.3472398338542,28.36252973070786L1093.6555689110417,145.94881521219634L1095.0313451659374,56.333037232684845L1095.7712803802085,111.01820765455237L1098.8620525190627,149.07199851584235L1099.68551365,186.00173279391808L1100.454265305521,162.32134391117341L1102.638050396771,199.74788065700676L1104.8172415626043,193.15225457319988L1106.9169787002083,156.978713793572L1109.5429291128125,20.344351333190705L1111.1836913383333,118.76616184819326L1111.8188015271876,183.15866372332124L1112.2321504072918,-7.382768773962205L1113.2250647416668,-42.607555475192754L1114.4357729037501,97.57469668009426L1115.3916226126044,142.14052515438325L1115.604822514896,146.64112118012386L1116.95157351375,213.49677518483008L1118.1885923395835,85.14036590740685L1118.7916494579167,173.3925216767327L1123.890802263021,240.54700521865303L1126.2393422248958,253.53515579842818L1126.746762168646,270.43170555359103L1127.150714383125,222.2207369005241L1128.7551428348959,247.25022896104406L1128.8131933469792,222.81919283850993L1129.3597660641667,239.3419100474358L1131.5149435289584,245.9714078762754L1131.98122695875,246.95093640438466L1133.4619326464583,247.56536698789446L1134.3140014038543,242.74357719690232L1135.5170878260417,240.13552486580986L1135.8068183494793,247.4141752144637L1139.8243105337501,254.06464775130806L1140.6089321134375,105.86476438676708L1141.2916520747917,181.445942505809L1141.5475546019793,226.1385934817467L1141.9976548854168,242.8879290382668L1143.2370750813543,238.50177194042632L1144.7468060251042,129.44807282306928L1145.717272769375,191.3711191130768L1148.4813541666667,207.44339568494303" style="fill: none;" fill="none"></path></g></g></g></g><g opacity="0.2"><g><g><g><path stroke="rgb(255, 112, 67)" stroke-width="2px" d="M110.53997304239584,394.3928644359112L111.72802479958334,353.44903508822125L111.86918359875,355.0638350844383L112.41293731625001,382.3846053977808L113.15976341864584,342.95611961682636L114.34875484239583,389.9327626526356L117.6766361771875,417.2906774481138L118.13289649697917,373.8919753432274L121.59870000166667,377.5517554779848L128.33642247697918,419.03976759314537L129.52019353093752,329.6156852245331L132.8647800490625,399.9102619191011L136.18138538510416,407.3846283157667L139.98599088927082,373.8846722841263L141.706102735625,397.97741931676865L142.72386603020834,398.9973383347193L143.16383879625,351.2274819612503L143.2324344553125,383.1244801878929L154.3775063309375,383.41404835383094L154.99653778083336,351.2124264240265L155.25870475177084,376.31501799821854L155.38033936791666,354.7308006087939L156.25882319645834,391.82313515742624L156.38797514510418,362.2989794810613L156.78660258239586,374.29031789302826L157.34100585427083,370.6078233718872L157.7690761771875,366.28361092011136L159.618653194375,342.833480656147L167.12209951072919,385.6606416106224L168.27799378999998,341.04073319832486L168.91279075666668,388.45496429999673L168.9748087497917,333.49620874722797L169.4284588846875,389.5022754073143L169.81831610072916,332.7792281111081L171.04729555708334,342.69144926468533L171.25099438635417,303.25994114081067L171.856870504375,336.1279466152191L175.25543564614583,372.40832330783206L175.45725514229167,277.5316758950552L175.86841146708335,357.4282510280609L176.25398797989587,325.91773068904877L177.28135675489585,289.1273008584976L177.6444856776042,321.4368582566579L177.997278268125,312.754247546196L181.56947290916668,322.70080431302387L181.91286883406252,288.55691321690875L181.99597712114587,325.0319332877795L183.307647235,228.06697050730384L184.18895006322919,339.7344144185384L187.64953319812503,254.5744833946228L188.61968672020834,328.0715488791466L189.9444077585417,311.37854595979053L192.2867876840625,275.8224604527155L192.5031198082292,304.394754131635L193.43015307583332,344.2084182302157L193.659640531875,364.81935131549835L196.89940202458337,282.36394906044006L197.35942101062503,102.88675498962402L198.76965170614585,284.17016410827637L199.51512051239587,342.63611829280853L200.13571807322919,165.51077890396118L201.93883379927084,217.29083116849267L202.55055673145836,290.1458940903346L203.0251927529167,325.121877014637L203.3640991597917,268.8756707906723L205.21858332458334,257.8558714389801L206.94569046645833,286.394713362058L207.94267668927085,302.1980089346568L208.77031411604167,248.88752011458075L208.9364262828125,241.13838267326355L209.86815788322917,305.2678105036418L211.67534549770835,283.89700722694397L213.9467283940625,213.4508752028147L214.36602849572918,320.0581755240758L214.714435975625,352.1944069862366L214.998841721875,289.70240739981335L215.32093853802087,338.6567300756772L215.77166526583335,276.18009312947595L216.49677462989584,318.11298513412476L216.59919828520836,327.14064478874207L216.76113415614586,225.65083392461145L217.24871669468752,290.1320969263713L219.10967411802085,267.8233711322149L220.259721583125,292.37023361523944L221.2811391365625,274.97485617796576L222.23239492000002,220.72431759039557L222.74952475156252,218.077044804891L223.44487800781252,264.2651859124502L223.59125717677085,309.41533386707306L224.0506497184375,265.517896493276L226.07166367958337,266.92149202028907L227.0289750919792,335.324160695076L227.53597740614586,224.62615855534875L227.69874853625004,278.072956164678L228.66858883614583,248.7911047538122L229.46647015510416,271.97541864713037L230.18761203812502,292.87004748980206L230.7417020878125,268.8978271484375L231.51807548322918,272.1552311976751L231.82628611572918,258.99812980492914L233.77766034385417,206.01444351673126L233.92664969770834,287.2271871964137L233.948784065625,226.10166112581885L234.28497588020835,301.5682230790456L234.47896482166666,330.0023803313573L234.8604694460417,177.33541282018024L237.66526972770836,244.97799408435822L238.11818901083333,95.60721548398334L238.6254001397917,154.5883686542511L239.777848975,238.60397398471832L240.00253369083333,261.3783278465271L240.37004772416668,242.39964719613397L240.7923756403125,164.00753219922382L240.99858024708334,194.9250591198603L242.0321090584375,279.27112225691474L242.29344077020835,283.7975058555603L242.34679294947918,358.34239927927655L242.5952825515625,296.44748282432556L243.21723740854168,253.14061200618744L243.3670620215625,324.09912665685016L243.63841684333337,344.6048432588577L244.55302563083333,283.98244178295135L245.42451416385418,111.4320981502533L245.91408044291666,222.81682753562927L246.52319319020836,274.35241083304084L247.87067504083336,154.27332592010498L248.33173810083338,278.94872403144836L250.11804423614583,318.78524857759476L250.16440111989584,323.20237841208774L250.2830079215625,33.60249098141987L252.58936729552084,302.4896818796794L253.01253047083335,325.40184259414673L253.49656315791668,33.02870273590088L253.61778014447918,309.3855074246724L253.9439488490625,81.9541352589925L255.29059544052083,330.123985628287L255.34332117541666,293.00691056251526L255.89668037333334,114.99272521336871L256.0054728797917,317.4679939349492L256.2642988140625,320.93227305014926L256.9999533251042,279.7358065446218L257.2520971860417,95.73754700024921L257.73049187375,95.25585969289142L258.5431990429167,266.4365988572439L258.8514096754167,272.6526631514231L261.65829810500003,45.020071109135934L262.6263634791667,254.80473574002588L266.1954258983334,265.49133582909906L266.48317268125,279.9051925738653L267.291912369375,5.949289162953681L269.29162722177085,291.867932955424L270.0660168766667,242.81928471724189L272.0236555485417,205.62915658950806L276.86826312260416,299.2027360200882L277.91713982114584,5.643953879674262L278.2804775586458,346.8259993990262L279.75001165500004,375.9284801880519L282.4841281296875,300.10919920603436L282.93307993177086,270.8930678367615L284.84979090447916,272.51945535341895L285.73359951020836,283.64482323328656L285.9057673059375,315.31831789016724L286.37027581,269.92916889985406L286.5396246060417,358.25959382454556L288.2567086379167,287.86122755209607L290.03654151468754,244.68049367268884L293.2519760841667,363.0079230070114L293.5760566408333,244.13653186957038L294.519690684375,326.0425418416659L295.6453068188542,284.3571523825328L295.713693663125,-10.93403522173561L297.80340769072916,269.0342707633972L298.40917940135415,292.73174627621967L298.57142849447916,256.781280597051L298.61956030395834,281.448287765185L298.7452668085417,244.84995460510254L298.7878650260417,-47.309441566467285L300.24654075322917,89.14100456237793L302.08922688229165,364.8563310106595L304.25045997604167,324.1324435869853L305.9672307857292,274.37945087750757L307.44532628854165,241.68716824054718L307.72461607239586,374.61836381753284L309.0011008938542,301.6998429298401L310.0284696688542,259.33077478408813L310.84295176375,327.7301701903343L311.71036840833335,258.53871870040894L313.36292866958337,270.20680499076843L313.5331127247917,65.9946665763855L314.9113947571875,-3.283245642979968L317.40683592500005,357.0155720114708L318.52441269,372.39074353377026L319.5426980215625,301.54716030756634L319.67184997020837,367.3861256639163L319.8052826220834,315.92035961151123L320.1426229180209,341.9393165707588L321.6915066352084,292.7201512654622L322.4940862869792,294.4545491536458L325.78260603354164,279.68117217222846L326.0363160054167,334.8872879544894L326.6889666367709,291.19632116953534L328.59962198052085,386.1712190707525L329.103178850625,14.080717404683417L329.8816403939583,46.005527178446464L330.1988300625,192.88286912441254L331.23747483625,336.93744015693665L331.55111465333334,308.67159032821655L331.65322508645835,316.7355757554372L332.24344009510423,315.57802965243656L334.1989906190625,292.1885634660721L334.92806746416665,321.9383274912834L338.0346051197917,331.3336119055748L338.7543897066667,313.25022637844086L339.8611081025,-46.8350648085276L341.64845831177087,332.71045951048535L343.91712661583335,242.07282968362176L344.5578748040626,305.34334286053974L344.7455993017708,256.81766855716705L348.2524349130208,359.9060553908348L348.5448800287501,332.635384062926L349.2438875438542,53.343071699142456L353.7621175985417,360.8796992301941L354.4227031919792,247.52997505664825L354.5025748497917,334.1011492212613L354.6335017241667,280.2290289402008L354.94630628208336,307.2324906984965L354.9851458333333,250.8001126448313L356.5839362857292,267.7720924218496L356.93297021,176.908704439799L357.1182933376042,369.4512659907341L357.63834657625006,298.24568323294324L358.92370602635424,354.7877944310506L359.1104908575,15.818920373916626L359.18326281239587,323.09850269556046L360.14161829875,333.9337406357129L361.53503940354165,335.9155212243398L362.33918516625,266.4049297968546L362.46061096760417,338.04425434271496L365.4568944132292,273.0649451812109L366.9112894371875,-44.918831984202036L367.37402301552083,270.54295543829596L367.7897732657292,20.702487230300903L369.3094229120834,348.61631999413174L369.47240285697916,277.45942429701483L373.06057182958335,316.13772861162823L374.0163171310417,321.401908437411L375.2824656203125,365.64446965853375L375.47906474666667,234.34905445575714L378.0449809066667,355.5231787761052L378.2115107030209,348.32853452364606L379.1484626732292,328.3571471770604L380.9385274747917,312.0017253557841L382.64141210083335,308.67500591278076L383.06770749802087,-25.02191336949669L383.33749620885413,62.873241742451974L383.835623894375,327.30069039265317L384.5043532646875,255.18305667241418L386.18447707843757,349.8695324261983L386.43735179114583,356.7460029919942L387.43204105125,233.32942756017053L388.42756557052087,-79.26978540420532L388.8812157054167,356.6405018766721L389.4326955702084,306.06918454170227L389.97958150958334,345.59184233347577L390.6623014709375,-10.258198897043837L390.7199343534375,297.1536848942439L391.4333500891667,325.7467492222786L391.57283837,352.0549672444661L393.77458153333333,321.5342623392741L394.4498885695833,256.47291922569275L395.6168500328125,323.07207685709L396.79101560635416,259.61545177300775L397.9778144747917,340.6422033905983L400.66494762135414,364.87181349595386L401.148040641875,326.36872267723083L401.3348254730208,297.1299106280009L404.67346076958336,329.87461799383163L405.7403999476042,330.470330397288L405.8560833421875,-21.752000490824354L405.9120457063542,73.3009015719096L409.0018781786459,-27.89331142107643L410.1131904998959,312.9067504008611L410.58772211395836,367.1774079799652L412.43312283531253,-84.0783292452494L413.48126868208334,324.1425480246544L414.54309189770834,241.97797230879462L414.94808818614587,182.5291986465454L416.75193476395833,-215.12538051605225L419.5043225329167,242.8930493593216L421.26014170864585,286.379597902298L421.96614451927087,-112.19302447636925L423.00906999625005,308.3440837065379L423.8745029003125,388.60805888970697L425.20621923416667,-329.47915172576904L427.54995645583335,291.74374349912006L428.834376239375,369.0172395706177L429.1800691269792,285.5251324971517L431.467948391875,342.57558155059814L432.131979429375,305.4993511835734L433.3279661486458,-59.362290461858144L433.4468861725,344.99302144845325L435.45432717218756,279.30021464824677L436.99370981635417,324.1480608979861L437.7031580710417,306.05236128966015L437.8231221688542,-91.88533687591553L438.2278052351042,-45.96217322349548L440.5041996864584,345.8167016506195L442.2573042698958,344.7987151344617L442.3720479979167,345.6846548517545L442.61208060093753,303.5636435349782L443.5500766451042,327.2406704823176L446.22060901572917,349.43167845408124L446.40614095812504,305.852579553922L449.7259829234375,352.68781663974124L449.92519223468753,301.97956132888794L450.48972302395833,-54.22147615750634L451.56804260812504,233.20123827457428L451.6117893069792,268.6488639911016L452.5924879760417,294.13346922397614L452.8045393969792,236.0209081967672L454.86752513125003,321.18332600593567L455.00461204197916,270.39681935310364L455.39290314708336,245.789809624354L457.5573728701042,43.964475711186715L458.8565140964584,325.11545781294507L460.248055868125,-92.2141318321228L460.5774612019792,358.27473175525665L460.95009119770833,317.23867038885754L462.6300061966667,312.29016248385113L463.8253664715626,331.90265878041583L464.1737739514583,299.40280238787335L465.1033129965625,242.03275648752845L465.4101663329167,-93.28416856129967L468.0751651115625,203.35669926802314L469.4923911026042,-323.89592933654785L469.617784385,346.60955170790356L470.54011931979164,332.2457153002421L470.6688536388542,326.5295472741127L471.09013748104167,-355.9340526262919L471.2027930611459,6.689362446467095L472.38364070802083,183.4406503836314L473.7087793759375,301.14197909832L474.25858872239587,319.602779229482L475.4129168907292,322.0235598087311L476.07506859510414,86.50869743029278L476.1704969548959,64.90563440322876L476.5320597666667,245.61097081502282L477.3390245290625,333.54780954122543L478.4247570383333,344.27340422074L480.71942278395835,357.5040530363719L482.1315328126042,250.77617359161377L482.3858692288542,297.6458436648051L483.69847900927084,-73.40696446100868L484.38297389635414,255.43260407447815L485.06538063552085,303.6873985528946L485.5194484,264.9027017752329L485.8926004327083,302.928254922231L487.3880275632292,360.75835609436035L491.1485731463542,316.71279021104175L493.433320189375,-445.431236743927L493.4861503316667,128.80864493052167L493.7758808551042,263.19817527135217L495.13338581572924,280.7822937170664L495.2109605108334,245.10631819566095L495.283836873125,291.61183901627857L495.7549230431251,307.0245145559311L498.50167281270836,247.61430104573571L498.97797935250003,267.14452370007837L499.15766448072924,283.7642937898636L500.3393473867709,266.17261012395227L503.68758816375004,313.14306990305585L504.22925373333334,330.3426579435666L504.3480693497917,259.2934730052948L504.59937795156253,284.07018335660297L504.9889219454167,265.52307979265845L505.1918899229167,313.26845781008404L505.65243094593757,318.2710682749748L506.1672638147917,268.16500449180603L506.3766006434375,210.67806470394135L507.12541048635416,330.75967385371524L508.98730757625,300.95639900366467L509.284868654375,313.5943165620168L510.05957153145835,322.485150595506L510.80796374479166,289.21218113104504L515.0794791231251,272.37594087918603L515.9882410964583,209.26002784570062L516.4565082667708,242.0311985015869L517.315885541875,336.92359805107117L517.3949219405208,273.7541891733805L518.9855686160416,-11.317749182383192L519.8883793678125,296.72938839594525L521.5283063341667,256.2327197392782L523.2286851827084,340.14614216486615L523.4341589377084,307.39657358328503L525.1923794835417,369.2833255926768L526.3478561332292,292.73417313893634L526.6378998788542,236.86671479543054L528.2571541808334,357.5550321340561L531.5871236635417,293.5303039550781L532.5288783739584,-107.19093084335327L533.1040587176042,305.5519481897354L533.1646150071875,314.7948645750682L534.5281755967709,351.67827171087265L535.6912739863542,352.41183590888977L538.2402761482292,325.6275408267975L539.6715971377083,301.1512970527013L541.6059529603126,-97.36950731277466L544.91013381625,-206.6540117263794L545.5951507403125,254.96854897340143L546.7435276870833,337.84601561228436L547.3748792096875,-83.46999565760292L547.43345175875,236.57113190491998L548.6276635522918,218.4120567242304L550.1656889003125,357.6455526153247L551.3627196935417,307.5449567635854L553.3515761767709,-34.68493167559303L553.8634856385418,292.8294349908829L554.0728224671875,241.99268329143524L554.54860697,244.50562473138177L555.1736940488543,330.96487857898074L555.3656992497918,-62.33774399757385L555.6552209584376,278.93676948547363L556.2759229266667,189.9933295249939L557.8319063467709,123.91108616193134L558.4025971723959,248.68532649676L559.5542107484375,262.03464440504706L560.763561614375,228.30725987752282L564.9423632252084,236.480214436849L567.2097786405209,-359.98787212371826L568.2891422986459,55.3976656595866L568.98564403625,348.4038047194481L569.2962560388542,223.4098059733709L570.0059131083334,260.48136238257086L570.4019303607291,255.5544116099676L570.8166365369792,-83.25930802027382L571.9788996673959,175.86662157376605L572.2914954105208,262.00691525141394L572.6001236726041,-29.29349136352539L573.7746024683333,277.43654886881507L574.3420566646876,-107.41492128372192L574.5570314927083,303.1817871729533L575.8072056504167,272.02326679229736L576.3498108865625,-61.01102908452355L576.9675894477084,-145.51139275232947L579.2479513801042,276.0286389191946L579.5409185328125,243.21308064460754L583.6846392586458,244.64767110347748L583.7469704739584,211.31367802619934L585.7630772875,285.65339668591815L588.5061727982292,278.6232098340988L589.0305067401042,-189.44497839609778L589.5506643861459,256.1070921421051L589.6101766017708,325.80419995387393L591.7920823598959,249.13231865564978L592.4732362103125,290.88816952705383L593.3531817423959,305.44918104012805L594.4475800655208,315.73986544211704L598.1927777614584,-100.14386081695557L599.7230769621875,180.03357481956482L601.5614823880209,338.83639281988144L601.8396236905209,334.3644488453865L602.8029907318751,241.4249472220739L603.9434327165626,23.853453874588013L604.3388235245834,293.51661165555316L607.0217803753126,251.85193292299903L608.0809934060417,261.25081268946326L608.8075644736459,153.78930163383484L609.3977794822918,231.7994703849157L609.8813945397917,223.3035932779312L611.0725785188542,328.02697400252026L611.2182268360417,-53.908111254374155L611.4138862958334,150.37368710835773L611.5392795782292,-198.51814921696985L613.3366528975,-184.61648035049438L613.5324167646876,251.23043135801947L613.8740377638542,-69.65060043334961L614.5020482497916,275.52406120300293L619.0863681860417,280.11397767066956L620.4439775540625,201.21370458602905L620.49691210375,227.10746089617408L620.6183379051042,316.53516483306885L621.4646642557292,281.592641154925L621.6994764889583,242.86982937653863L622.3113038285418,306.32112884521484L622.3855374869792,248.84913973013556L622.7266364491667,267.5326120058695L623.0879904461459,246.04656271139777L623.9903835683334,-108.98507150014244L626.0173487510417,307.6864638328552L626.7393258932293,277.5869094928106L627.1200996658333,268.6373438835144L627.3856076734376,196.90708688894904L628.2349618385417,-600.5642712910969L628.8042953680209,216.14208618799842L630.4312758172917,149.95812431971234L630.9022575798958,286.4443142414093L630.9767000531251,314.0638845364253L631.5027045133334,281.5905738274256L633.8578221411458,292.717005332311L634.354488123125,317.1747854749362L634.4266336336459,281.61094748973846L634.6772113836458,-62.249687830607066L636.7540833015626,195.44926146666205L639.6057625039583,242.96753307183587L639.8657369195834,312.31870059172314L641.4336227828126,289.61140004793805L642.6593656098959,290.94037703673047L642.8790387707292,282.7789276043574L644.2439566564583,280.80043526490533L644.9451567268751,252.07911423842108L646.432335673125,142.14788087209064L646.9038394727085,-175.92381763458252L647.9110576203125,272.572876294454L648.0310217181251,234.45510236422217L648.2606135815626,293.39269185066223L649.6344060959376,287.95455690224964L649.7994741887501,293.80450948079425L650.0846107867708,298.7341717481613L650.8746615510416,147.84888100624084L651.6860114240625,317.02535365025204L652.75503875,-541.6867841084797L653.9297263605208,282.8615458011627L654.3095604665626,-44.58503349622094L654.9702504673959,269.24594712257385L656.1787660741667,260.16655933856964L656.2446471409376,27.718008041381836L658.0734470863541,328.84787529706955L658.5244870363542,326.97032996018726L659.1578222994792,245.42628955841064L659.8555769258335,212.76040279865265L661.1999265545834,236.43507778644562L662.3541503155209,264.4409087498983L664.3909297934375,155.46512524286908L664.8958439596876,275.7746572494507L668.2095258886459,344.4004325071971L668.3372161337501,206.80059723059333L668.9615723608333,223.1573223670324L669.4166841992709,-68.6262845993042L671.2354610346875,135.55909840265912L672.7252501658334,-190.65367587407434L673.3499196151041,319.37215236822766L674.4088194236458,257.07839151223504L674.5921588107292,-50.57033610343933L675.091539385,74.55430126190186L677.1588058225001,293.39218250910443L678.229399259375,274.9713656902313L678.6356484365625,-144.4568759600321L681.5337889301043,-455.84769105911255L681.745735943646,276.1122308572134L683.1456303069792,199.2508520285288L683.5914498871875,234.24296160538995L683.660671990625,208.1823809544245L685.198697338646,267.23678942521417L685.7079966155209,310.0679651896159L689.957690848125,-34.535245180130005L690.5999007398958,242.8135621150335L691.0731794652085,245.93670972188318L691.8049709026042,311.136398990949L691.9963496591668,212.69246562321985L693.3838195423959,-197.49533144632971L694.0539062088542,285.03017234802246L694.83205453,306.6430626710256L695.6599007715624,330.3849258025487L695.7542850573959,327.11022661129635L695.9662320709376,216.3724284172058L697.5380854152083,270.842013835907L697.9607265535417,256.407229145368L699.5018841234375,233.1958602269491L700.1189318328126,319.5924500823021L700.6846111034375,292.1437414089839L704.87896941625,333.7179221312205L705.541121120625,-175.9075187047323L706.1949202333334,259.9663132031759L708.58000278375,191.1119784116745L710.4861686094793,282.21218025684357L710.7357022855209,259.11403497060144L713.271444708125,235.52641244729364L714.9493759665626,318.8780311346054L719.4234416928126,282.7184657653173L722.2127896798959,-586.1877762476604L725.0778330289584,-181.3137299219767L725.1367188002084,241.54745884736383L725.2695250077084,204.70783261458075L726.2280893088542,323.947440246741L726.9695906340626,288.1882248322169L728.5583579764583,202.33484025796258L728.9459182297917,216.85162893931067L729.9839365591668,152.02706972757977L730.3936311804167,334.5716310143471L731.0764555491668,330.70405075947446L732.7240042554166,279.86676724751794L733.89837864375,292.03619543711346L735.3156046347917,284.93362216154736L737.433404251875,-107.31976429621376L737.9309054930209,303.9061757326126L738.7349468483334,321.4696358839671L739.9766640069791,312.07499563694L740.4640377307292,219.47664050261176L740.7859257320833,327.6243544816971L743.4932095060417,-78.54777876536049L745.9911564513542,263.32416240374243L747.8693410950001,200.44927279154456L748.0023561172917,248.48383696873987L748.0722046651042,256.02411441008246L748.2192102784375,297.9324681361516L749.3405457096876,-108.06693840026855L749.7203798157292,-108.60114781061806L750.0301565591668,95.8049298922221L751.9254640157292,310.35635737578076L752.8380890627084,308.86819616953534L753.5280131343751,248.6523541212082L754.1447476215626,312.66343494256336L754.4391764778126,251.6751764218012L754.4857421763542,254.53854485352838L756.2826978660418,279.3023269176483L756.9116480185418,318.66906627019245L758.5309023205208,299.15890268484753L758.6067020898959,-69.83779843648277L759.4579355881251,227.75326104958856L761.5299003584375,329.6170035203298L762.1145817751042,304.09711889425915L763.1969732477083,342.13364535570145L763.5198009156251,329.375066280365L764.0368263397918,154.69865608215332L764.5613690964583,-172.2691421508789L765.0913410377084,279.66827384630835L766.1995211370834,320.8372433980306L768.2261730976043,-206.04232247670495L768.8860278392709,-259.34455696741736L771.2970034238542,305.9629119237264L771.9418235005209,228.47132778167725L772.0000828273958,248.4076304833094L772.4035130048959,235.10322451591492L773.4061372270833,243.1541018883387L773.8778498414583,-158.0334051450094L775.7550948185417,299.73751469453174L775.8206626631251,149.93715143203735L776.4168288933333,263.41506489117944L776.7489488194792,276.75689248243964L777.5226076226043,257.5647827386856L778.1238898152084,309.04465305805206L779.0519671567708,285.56549032529193L781.6241477605208,244.329167842865L781.8208512942709,-143.18460067113244L782.4769473696875,317.5159319639206L784.079705303125,262.8149856328964L784.3317447566667,327.6972951889038L785.0111236813542,269.6903476317724L785.9402450968751,-524.5449838638306L786.3455546075,183.26001389821369L786.4845208513542,214.75570340951288L788.8760766603126,294.1004668871562L789.2773142825001,301.7972320318222L789.6456635750001,241.2729686896006L789.7980983729167,281.4492015838623L790.5493095859376,272.6560787359873L790.8958377327083,281.29088624318445L791.792488448125,292.87085644404095L792.4196636748959,262.40954975287116L793.4609186335417,146.2819366455078L795.13707496625,237.58911093076074L796.40750415875,247.09325961271918L797.0912681940626,-98.94858598709106L798.3265120941667,68.91259447733563L800.2185829214584,-168.74587678909302L801.7859467477084,-184.68365351359046L801.902778623646,221.65834514300025L801.9649010241667,264.49097402890527L805.3596030922918,-41.24791749318444L805.8779858126043,266.08471874396L806.0744805315626,330.1606806914012L806.6692894656251,116.28648273150128L809.2129668503126,290.3546642065048L811.3010103595834,271.24232633908593L812.6332487304168,315.6482214132945L813.889165294896,283.1172652244568L815.9139379222917,307.15580483277637L816.4486081963543,222.0243969360987L816.5421572230209,243.62762475013733L818.8798388157293,211.28108016649878L819.9958494697917,-91.03893105189003L820.9895990633335,-116.07756280899048L821.4062889801043,162.43980884552002L823.4432772728126,284.3922969500224L823.6438438802084,257.2525863250097L823.6948990967709,214.73468557993567L824.1262060489585,345.6282228032748L824.2535830718751,217.25615100065863L825.3237588791667,260.85935374101007L825.8394270071875,327.57614680131275L826.428075904896,268.26195915540063L827.4643193085417,244.19969022274017L828.6234502170834,246.3408273061117L831.4017310202084,270.97020312150323L832.23511085375,275.4221329689026L832.3590424326043,-277.9303105672201L833.0545000962501,-92.10926739374794L833.7606073142708,196.70018935203552L834.2563336296876,-42.23577046394348L834.7161438009375,243.76352906227112L834.8283817514583,220.317653298378L835.9521185528125,227.1667093038559L837.2976166629168,-206.44608052571618L841.6575651055209,-185.85669708251953L842.0881412059375,281.2016016642252L842.7173001732292,279.65694848696387L844.8174549404166,299.0675058364868L846.3138217375001,309.7695959011714L846.3791807672917,267.8801477352778L847.6165128153126,85.41220490137738L849.4582592778125,-605.9727595647175L849.8134532384375,-23.860135237375868L851.7361154327084,271.0081640481949L852.2210877863542,189.24052270253503L852.6021747811459,60.43124858538311L852.7518949867708,248.3949568669001L852.8323930889584,291.37623858451843L854.3073563698958,-496.2843173344929L854.6214138165626,266.08056910832727L855.5625420826043,286.441437959671L856.1901349389584,-234.02243169148767L856.5203755319792,163.3068579832713L857.0569251391667,200.94606057802832L858.4045113971875,295.7535798549652L859.2504201182293,298.33460827668506L861.5964543026041,315.4601470430692L862.2050450129167,303.1891276836395L865.7045721064584,230.50117373466492L866.0498473644792,251.20393061637878L867.0271005894792,219.11222159862518L867.839807758646,-179.81039333343506L868.1195151720833,249.71215907732642L869.2175677540625,186.39141583442688L870.0755877330209,250.35186211268103L871.4534521358333,183.6519072850545L872.1236432096875,313.6253863970439L872.6999720346876,280.6787026325861L875.2001115353125,342.9645012815793L876.6110730826042,165.50895126660663L876.8251082440624,317.18133201201755L877.8826507564585,229.1625042756399L878.9913528928126,241.0355406204859L883.9042429037501,185.26022815704346L884.5306872787501,329.17931433518726L884.5722414222917,-103.29219086964927L886.5699725341667,303.5461761156718L887.8324667645834,260.1502604087194L888.0645644055209,260.9714688062668L889.4469183263542,328.68466877937317L893.9352878658334,248.13577691713965L894.3388224507293,-29.82889922459923L895.882590205521,-165.7990063031515L897.3524375240626,269.18532049655914L899.3013059746875,242.49829467137658L902.3648277832292,211.50824650128686L904.2485460188542,284.0645656188329L908.2284515406251,248.5790239175161L909.2062268026042,-544.6285611788433L911.3072168289584,203.18873639901483L911.8284185489583,242.20218745867408L913.2082666922918,278.0949776967367L914.9174157620834,283.7728327512741L915.2000465826043,-78.70765209197998L915.9743318301042,347.73255995909375L916.7902756285417,252.26036492983496L917.2346335052083,273.544505238533L919.8814653969793,238.70447905858362L919.9525668335417,309.01427233219147L920.2590025403125,234.1044806241989L921.2350028765626,125.19567553202313L924.9966969410418,190.01199539502466L926.1999921780208,176.69720784823102L928.0602187495833,244.2580098311106L928.1171207803126,260.4086014429728L928.6920923091667,202.95070910453796L929.4236749317708,-143.52717781066895L930.2646765052084,295.26783279577893L931.2707461714584,197.9574989875158L931.5501403627084,-580.4068094889324L932.6512207591668,268.2817186117172L933.8511749594793,310.59066947301227L935.0116631641667,-83.5344123840332L935.9341025063543,276.84458911418915L936.5929131740626,-151.7091806729635L936.7895123004167,297.41863238811493L937.5988784329168,255.3756776650747L937.7006756438542,8.704557339350396L937.9516710234375,256.03509521484375L939.8231735937501,270.8351676861445L941.5300257008333,289.6630682547887L943.8400393336459,261.21748077869415L944.882442773646,254.7501013676325L947.2874671366667,-24.631068627039564L947.5732301790626,228.33444972833001L950.6978303141667,-56.6899550755819L950.9397422503126,314.91329397757846L952.322096171146,-408.6443723042805L955.6085277697917,282.5056358973185L957.4538240837501,307.91872358322144L957.6858173172917,253.37171824773156L960.5480416666668,288.40476989746094L961.619052733125,308.93716700871784L963.9552726222918,303.2838801940282L964.9489178084375,235.61454351743066L965.4736693798959,212.0946034987768L965.9322266623959,202.1603308518728L968.2006861516668,250.09922870000207L969.3269287305209,328.12022095918655L969.5457666321876,-57.40842628479004L969.7245120938542,234.95976996421814L970.668668174375,246.47484405835473L972.3959841310418,314.1047217448552L973.6302883645833,253.90390527248383L974.0898897210418,259.4492266575495L974.578933963125,242.54561849435174L976.0838621666668,292.5193808078766L977.493257603021,232.56945999463403L978.3875069483335,311.6417557001114L980.9399545542709,302.0330421924591L982.4712978289583,308.0076186656952L982.6601708080208,251.3331835269928L983.6241642937501,269.3978807131449L983.9263192972917,265.1426316102346L984.3965702081251,266.66652162869775L987.2517992619792,332.09539212783176L987.3035853303126,328.84289423624676L988.66077706875,298.57578150431317L988.8542439732292,287.2430816491445L989.4372548715626,283.6239552100499L989.5110709004167,-175.4968695640564L989.5850957440626,-16.862021923065186L990.0148365853125,352.57663786411285L991.3825734707292,259.2170717716217L991.5337553798959,291.2323495944341L992.7177352486459,258.6736193100611L996.0575190265627,199.9439160823822L996.9679515182293,195.15547625223792L997.4128314318751,238.1253127654394L999.7252464347918,238.3861256043116L1002.5480047885417,114.17538181940716L1004.4729639455209,205.63952318827307L1006.3051049276042,324.9553447961807L1006.6474567785417,184.48372197151184L1007.0857590262501,252.6392401456833L1008.7764279869792,298.61592960357666L1010.4727349470834,260.1378564437231L1011.3188524829168,316.0219882329305L1011.3710561808333,-147.4881772994995L1011.8146832057291,190.22027115027106L1012.4458259135417,283.0059591134389L1013.484366279896,238.38913671175635L1014.3296485565626,32.953739643096924L1014.724099698021,-211.05753914515174L1016.0201087025001,319.2938336133957L1016.3181918176042,278.5429286162058L1017.9359844160417,-201.20160023371375L1018.08612225125,314.38605805238086L1018.6427180784375,236.84547225634253L1022.0756332534374,225.3485097487768L1023.6084382316667,230.15001269181573L1025.27519789875,209.21432193120324L1027.6810575209377,247.90318759282434L1027.7512192909376,196.98801227410638L1029.406702959271,190.2219639619192L1029.5624787938543,271.85164864857995L1029.644125377396,252.0491979122162L1031.7336305902083,202.88940834999084L1033.491120284271,247.35528588294983L1033.8020455090625,-88.92264684041344L1034.8278481731252,229.62525606155396L1035.215721648646,71.82234295209247L1037.1953902810417,330.79150770107907L1037.2631506809375,358.58921271562576L1037.8406279872916,338.9459087451299L1038.1163679196875,204.52148850758874L1038.5493453902084,263.37049750487006L1039.6660868960416,253.54222782452905L1042.5697609815625,285.54283960660297L1043.3122019733335,295.3239502509435L1044.0505710766668,216.69986013571418L1044.6866209320833,222.24510661760962L1044.7375717412501,261.8026692867279L1045.014460155,332.29145117600757L1045.2777756072917,294.79720119635266L1045.5514273917709,268.5383518536886L1046.6598163059375,-384.7267713546753L1047.0134441556252,309.2123163143794L1047.3054716417707,-146.6257721583048L1047.420006555,206.84982359409332L1049.0384255978126,300.7804664373398L1050.3008154208333,211.86668813228607L1050.7818202934375,265.8770571947098L1050.8348592505208,259.15878212451935L1051.9803127902085,157.04618136088055L1052.1581185853126,272.98401979605353L1054.1895732860419,304.75954755147296L1054.2457444650001,231.15064414342248L1054.3162194571876,294.2854177951813L1055.9234669086459,-192.28836266199744L1056.8664745078127,337.226806084315L1060.2329865790625,286.44843391577405L1060.9608105354166,208.6574318408966L1065.1105868902084,264.98421140511834L1068.1598048855208,261.55355632305145L1068.4124707834376,329.9518806139628L1069.7485722279168,273.84569088617957L1071.4134525618751,214.597403049469L1071.5479292877085,336.104696671168L1072.72961219375,71.3140799999237L1075.312442351875,238.47304324309027L1076.037864938125,332.0597232381503L1077.2940947247916,311.0372571547826L1077.5823635446877,324.5563356081645L1077.690947236354,282.3825400273005L1078.3428670159376,277.3379463354746L1079.5651643989584,356.7541299859683L1080.6358622432292,293.79709406693775L1081.1061131540625,17.467778841654475L1082.2136668090627,246.31149522463477L1082.5814940645835,229.28228942553199L1083.0857817864583,-154.9291181564331L1086.170707111146,234.45068307717645L1086.50888266625,293.7881506284078L1087.589499213125,341.5061290661494L1088.029367571771,299.6583420435588L1088.7173079029167,316.80029958486557L1089.2950984314584,225.1646224657694L1090.0273074984375,280.42966457208L1090.5396345897918,242.2034158706665L1091.2808226928125,280.26850291093194L1091.3628869059376,-179.27109050750732L1091.4257401582292,293.197629014651L1092.3472398338542,-185.0632028579712L1093.6555689110417,322.32824343442917L1095.0313451659374,-78.09062973658241L1095.7712803802085,193.04596328735352L1098.8620525190627,206.1526848077774L1099.68551365,241.39633421103156L1100.454265305521,126.80076058705646L1102.638050396771,255.88768577575684L1104.8172415626043,183.25881544748944L1106.9169787002083,102.71840262413025L1109.5429291128125,-184.60719235738122L1111.1836913383333,266.398877620697L1111.8188015271876,279.74741653601325L1112.2321504072918,-293.1949175198873L1113.2250647416668,-95.44473552703857L1114.4357729037501,307.8480749130249L1115.3916226126044,208.98926786581671L1115.604822514896,153.39201521873474L1116.95157351375,313.78025619188946L1118.1885923395835,-107.39424800872803L1118.7916494579167,305.77075533072156L1123.890802263021,341.27873053153354L1126.2393422248958,273.0173816680908L1126.746762168646,295.77653018633526L1127.150714383125,149.9042839209239L1128.7551428348959,284.7944670518239L1128.8131933469792,186.17263865470886L1129.3597660641667,264.1259858608246L1131.5149435289584,255.91565461953485L1131.98122695875,248.42022919654846L1133.4619326464583,248.48701286315918L1134.3140014038543,235.51089251041412L1135.5170878260417,236.22344636917114L1135.8068183494793,258.3321507374445L1139.8243105337501,264.04035655657447L1140.6089321134375,-116.43506066004433L1141.2916520747917,294.81770968437195L1141.5475546019793,293.17756994565326L1141.9976548854168,268.0119323730469L1143.2370750813543,231.92253629366553L1144.7468060251042,-34.13247585296631L1145.717272769375,284.2556885480881L1148.4813541666667,231.55181054274237" style="fill: none;" fill="none"></path></g></g></g></g></g></g><g transform="translate(30, 377)" clip-path="url(#clip_1)"><clipPath id="clip_1"><rect width="1252" height="23"></rect></clipPath><g><g><line x1="0" y1="0" x2="0" y2="5" style="visibility: inherit;" fill="rgb(0, 0, 0)" stroke="rgb(204, 204, 204)" stroke-width="1px"></line><line x1="104.40739583333334" y1="0" x2="104.40739583333334" y2="5" style="visibility: inherit;" fill="rgb(0, 0, 0)" stroke="rgb(204, 204, 204)" stroke-width="1px"></line><line x1="208.81479166666668" y1="0" x2="208.81479166666668" y2="5" style="visibility: inherit;" fill="rgb(0, 0, 0)" stroke="rgb(204, 204, 204)" stroke-width="1px"></line><line x1="313.2221875" y1="0" x2="313.2221875" y2="5" style="visibility: inherit;" fill="rgb(0, 0, 0)" stroke="rgb(204, 204, 204)" stroke-width="1px"></line><line x1="417.62958333333336" y1="0" x2="417.62958333333336" y2="5" style="visibility: inherit;" fill="rgb(0, 0, 0)" stroke="rgb(204, 204, 204)" stroke-width="1px"></line><line x1="522.0369791666667" y1="0" x2="522.0369791666667" y2="5" style="visibility: inherit;" fill="rgb(0, 0, 0)" stroke="rgb(204, 204, 204)" stroke-width="1px"></line><line x1="626.444375" y1="0" x2="626.444375" y2="5" style="visibility: inherit;" fill="rgb(0, 0, 0)" stroke="rgb(204, 204, 204)" stroke-width="1px"></line><line x1="730.8517708333334" y1="0" x2="730.8517708333334" y2="5" style="visibility: inherit;" fill="rgb(0, 0, 0)" stroke="rgb(204, 204, 204)" stroke-width="1px"></line><line x1="835.2591666666667" y1="0" x2="835.2591666666667" y2="5" style="visibility: inherit;" fill="rgb(0, 0, 0)" stroke="rgb(204, 204, 204)" stroke-width="1px"></line><line x1="939.6665625" y1="0" x2="939.6665625" y2="5" style="visibility: inherit;" fill="rgb(0, 0, 0)" stroke="rgb(204, 204, 204)" stroke-width="1px"></line><line x1="1044.0739583333334" y1="0" x2="1044.0739583333334" y2="5" style="visibility: inherit;" fill="rgb(0, 0, 0)" stroke="rgb(204, 204, 204)" stroke-width="1px"></line><line x1="1148.4813541666667" y1="0" x2="1148.4813541666667" y2="5" style="visibility: inherit;" fill="rgb(0, 0, 0)" stroke="rgb(204, 204, 204)" stroke-width="1px"></line><line x1="1252.88875" y1="0" x2="1252.88875" y2="5" style="visibility: inherit;" fill="rgb(0, 0, 0)" stroke="rgb(204, 204, 204)" stroke-width="1px"></line></g><g transform="translate(0, 8)"><text x="0" y="0" dx="0em" dy="0.95em" style="text-anchor: middle; visibility: hidden; font-family: Roboto, sans-serif; font-size: 12px; font-weight: 200;" fill="rgb(33, 33, 33)" stroke="none" stroke-width="1px">-1M</text><text x="104.40739583333334" y="0" dx="0em" dy="0.95em" style="text-anchor: middle; visibility: inherit; font-family: Roboto, sans-serif; font-size: 12px; font-weight: 200;" fill="rgb(33, 33, 33)" stroke="none" stroke-width="1px">0</text><text x="208.81479166666668" y="0" dx="0em" dy="0.95em" style="text-anchor: middle; visibility: inherit; font-family: Roboto, sans-serif; font-size: 12px; font-weight: 200;" fill="rgb(33, 33, 33)" stroke="none" stroke-width="1px">1M</text><text x="313.2221875" y="0" dx="0em" dy="0.95em" style="text-anchor: middle; visibility: inherit; font-family: Roboto, sans-serif; font-size: 12px; font-weight: 200;" fill="rgb(33, 33, 33)" stroke="none" stroke-width="1px">2M</text><text x="417.62958333333336" y="0" dx="0em" dy="0.95em" style="text-anchor: middle; visibility: inherit; font-family: Roboto, sans-serif; font-size: 12px; font-weight: 200;" fill="rgb(33, 33, 33)" stroke="none" stroke-width="1px">3M</text><text x="522.0369791666667" y="0" dx="0em" dy="0.95em" style="text-anchor: middle; visibility: inherit; font-family: Roboto, sans-serif; font-size: 12px; font-weight: 200;" fill="rgb(33, 33, 33)" stroke="none" stroke-width="1px">4M</text><text x="626.444375" y="0" dx="0em" dy="0.95em" style="text-anchor: middle; visibility: inherit; font-family: Roboto, sans-serif; font-size: 12px; font-weight: 200;" fill="rgb(33, 33, 33)" stroke="none" stroke-width="1px">5M</text><text x="730.8517708333334" y="0" dx="0em" dy="0.95em" style="text-anchor: middle; visibility: inherit; font-family: Roboto, sans-serif; font-size: 12px; font-weight: 200;" fill="rgb(33, 33, 33)" stroke="none" stroke-width="1px">6M</text><text x="835.2591666666667" y="0" dx="0em" dy="0.95em" style="text-anchor: middle; visibility: inherit; font-family: Roboto, sans-serif; font-size: 12px; font-weight: 200;" fill="rgb(33, 33, 33)" stroke="none" stroke-width="1px">7M</text><text x="939.6665625" y="0" dx="0em" dy="0.95em" style="text-anchor: middle; visibility: inherit; font-family: Roboto, sans-serif; font-size: 12px; font-weight: 200;" fill="rgb(33, 33, 33)" stroke="none" stroke-width="1px">8M</text><text x="1044.0739583333334" y="0" dx="0em" dy="0.95em" style="text-anchor: middle; visibility: inherit; font-family: Roboto, sans-serif; font-size: 12px; font-weight: 200;" fill="rgb(33, 33, 33)" stroke="none" stroke-width="1px">9M</text><text x="1148.4813541666667" y="0" dx="0em" dy="0.95em" style="text-anchor: middle; visibility: inherit; font-family: Roboto, sans-serif; font-size: 12px; font-weight: 200;" fill="rgb(33, 33, 33)" stroke="none" stroke-width="1px">10M</text><text x="1252.88875" y="0" dx="0em" dy="0.95em" style="text-anchor: middle; visibility: hidden; font-family: Roboto, sans-serif; font-size: 12px; font-weight: 200;" fill="rgb(33, 33, 33)" stroke="none" stroke-width="1px">11M</text></g><line x1="0" y1="0" x2="1252.88875" y2="0" fill="rgb(0, 0, 0)" stroke="rgb(204, 204, 204)" stroke-width="1px"></line></g></g></g></g></svg>